<?xml version="1.0" encoding="UTF-8"?>
<svg xmlns="http://www.w3.org/2000/svg" xmlns:xlink="http://www.w3.org/1999/xlink" width="39px" height="24px" viewBox="0 0 38 24" version="1.1">
<g id="surface1">
<path style=" stroke:none;fill-rule:nonzero;fill:rgb(20%,35.294118%,64.313725%);fill-opacity:1;" d="M 14.726562 10.738281 L 17.21875 10.738281 L 17.21875 17.460938 L 14.726562 17.460938 Z M 14.726562 10.738281 "/>
<path style=" stroke:none;fill-rule:nonzero;fill:rgb(20%,35.294118%,64.313725%);fill-opacity:1;" d="M 33.726562 3.898438 L 28.617188 0.0585938 L 24.699219 0.0585938 C 24.460938 0.0585938 24.34375 0.179688 24.226562 0.179688 L 19.355469 4.261719 C 19.117188 4.5 18.644531 4.5 18.40625 4.261719 L 13.539062 0.179688 C 13.417969 0.0585938 13.300781 0.0585938 13.0625 0.0585938 L 9.382812 0.0585938 L 4.273438 3.898438 C 4.039062 4.140625 3.917969 4.5 4.273438 4.738281 L 9.144531 9.179688 L 9.382812 9.058594 L 9.382812 23.460938 C 9.382812 23.820312 9.738281 24.058594 10.09375 24.058594 L 27.90625 24.058594 C 28.261719 24.058594 28.617188 23.820312 28.617188 23.460938 L 28.617188 9.058594 L 28.855469 9.179688 L 33.726562 4.738281 C 33.960938 4.5 33.960938 4.140625 33.726562 3.898438 Z M 19.832031 18.78125 L 18.523438 20.101562 L 13.417969 20.101562 L 12.113281 18.78125 L 12.113281 9.421875 L 13.417969 8.101562 L 18.523438 8.101562 L 19.832031 9.421875 C 19.832031 9.421875 19.832031 18.78125 19.832031 18.78125 Z M 25.886719 20.101562 L 20.542969 20.101562 L 20.542969 17.460938 L 21.851562 17.460938 L 21.851562 10.738281 L 20.542969 10.738281 L 20.542969 8.101562 L 24.582031 8.101562 L 24.582031 17.460938 L 25.886719 17.460938 C 25.886719 17.460938 25.886719 20.101562 25.886719 20.101562 Z M 25.886719 20.101562 "/>
<path style=" stroke:none;fill-rule:nonzero;fill:rgb(20%,35.294118%,64.313725%);fill-opacity:1;" d="M 37.882812 7.140625 L 35.386719 5.21875 C 35.269531 5.101562 35.03125 5.101562 34.914062 5.21875 L 30.164062 9.660156 C 30.042969 9.78125 30.042969 10.140625 30.164062 10.261719 L 32.539062 12.179688 C 32.65625 12.300781 32.894531 12.300781 33.132812 12.179688 L 37.882812 7.738281 C 38 7.621094 38 7.378906 37.882812 7.140625 Z M 37.882812 7.140625 "/>
<path style=" stroke:none;fill-rule:nonzero;fill:rgb(20%,35.294118%,64.313725%);fill-opacity:1;" d="M 3.085938 5.578125 C 2.96875 5.460938 2.730469 5.460938 2.613281 5.578125 L 0.117188 7.378906 C 0 7.5 0 7.859375 0.117188 7.980469 L 4.867188 12.421875 C 4.988281 12.539062 5.226562 12.539062 5.34375 12.421875 L 7.71875 10.5 C 7.957031 10.378906 7.957031 10.019531 7.71875 9.898438 Z M 3.085938 5.578125 "/>
</g>
</svg>
