<?xml version="1.0" encoding="UTF-8"?>
<svg id="Capa_1" data-name="Capa 1" xmlns="http://www.w3.org/2000/svg" viewBox="0 0 1833.97 358.94">
  <defs>
    <style>
      .cls-1 {
        fill: #fff;
      }

      .cls-2 {
        fill: none;
        stroke: #fff;
        stroke-miterlimit: 10;
        stroke-width: 15px;
      }
    </style>
  </defs>
  <path class="cls-1" d="M120.13,15.37c68.94,0,123.67,59.06,123.67,128.86s-54.73,128.86-123.67,128.86h-53.61v70.39H0V15.38H120.13Zm-53.61,191.17h53.61c30.92,0,57.14-26.53,57.14-62.32s-26.22-62.32-57.14-62.32h-53.61v124.64h0Z"/>
  <path class="cls-1" d="M356.47,15.37V276.47h148.98v67h-217.95V15.37h68.97Z"/>
  <path class="cls-1" d="M730.67,15.37l119.55,328.1h-70.94l-25.65-70.39h-116.87l-25.65,70.39h-70.94L659.72,15.37h70.95Zm-69.5,190.73h68.05l-34.03-93.38-34.02,93.38Z"/>
  <path class="cls-1" d="M899.34,15.37l72.03,144L1043.4,15.37h74.84l-113.4,226.71v101.39h-66.93v-101.39L824.51,15.37h74.83Z"/>
  <path class="cls-2" d="M1540.94,49.39l-38.77,57.43c-22.47-17.09-49.29-28.29-79.86-28.29-54.12,.73-106.51,35.66-108.79,100.94,2.28,65.28,54.67,100.2,108.79,100.93,30.57,0,57.38-11.2,79.85-28.29l38.77,57.43c-31.21,25.31-71.16,41.9-118.76,41.9-105.33,0-179.72-78.72-179.72-171.97S1316.83,7.5,1422.17,7.5c47.61-.01,87.56,16.58,118.77,41.89Z"/>
  <path class="cls-1" d="M1702.04,15.37c68.94,0,123.67,59.06,123.67,128.86,0,51.92-30.29,97.89-74.18,118.04l82.44,81.21h-88.81l-71.46-70.39h-25.27v70.39h-66.53V15.38h120.14Zm-53.61,191.17h53.61c30.92,0,57.14-26.53,57.14-62.32s-26.22-62.32-57.14-62.32h-53.61v124.64Z"/>
</svg>